<svg width="26" height="26" viewBox="0 0 26 26" fill="none" xmlns="http://www.w3.org/2000/svg">
<path d="M6.5 14.625C6.39506 14.625 6.3425 14.7519 6.41671 14.8261L14.2455 22.6549C14.835 23.2444 14.8308 24.2014 14.2361 24.7856L14.0606 24.958C13.4733 25.535 12.5308 25.5308 11.9487 24.9487L1.06066 14.0607C0.474874 13.4749 0.474874 12.5251 1.06066 11.9393L11.9487 1.05132C12.5308 0.469192 13.4733 0.465021 14.0606 1.04197L14.2361 1.21442C14.8308 1.79864 14.835 2.75563 14.2455 3.34509L10.7656 6.825L6.41671 11.1739C6.3425 11.2481 6.39506 11.375 6.5 11.375H16.0333H24.5C25.3284 11.375 26 12.0466 26 12.875V13.125C26 13.9534 25.3284 14.625 24.5 14.625H6.5Z" fill="#2D2D2D"/>
</svg>
