<svg width="20" height="20" viewBox="0 0 20 20" fill="none" xmlns="http://www.w3.org/2000/svg">
<path d="M18.6712 17.0143L12.6624 11.1805L12.243 10.7364C11.8496 10.3197 11.8496 9.68023 12.243 9.26359L12.6624 8.8194L18.6712 2.98562C19.1123 2.55738 19.1092 1.86212 18.6642 1.43768L18.5328 1.31239C18.0934 0.893236 17.3881 0.896266 16.9525 1.31918L10.6965 7.39281C10.3086 7.7695 9.69139 7.7695 9.3034 7.39281L3.04753 1.31924C2.61192 0.89632 1.90662 0.89329 1.46717 1.31245L1.33582 1.43774C0.890835 1.86217 0.887667 2.55743 1.32876 2.98568L7.33764 8.81946L7.75704 9.26365C8.15043 9.68029 8.15043 10.3198 7.75704 10.7364L7.33764 11.1806L1.32876 17.0144C0.887667 17.4426 0.890836 18.1379 1.33582 18.5623L1.46717 18.6876C1.90662 19.1068 2.61191 19.1037 3.04753 18.6808L9.30345 12.6072C9.69145 12.2305 10.3086 12.2305 10.6966 12.6072L16.9525 18.6808C17.3881 19.1037 18.0934 19.1067 18.5328 18.6876L18.6642 18.5623C19.1092 18.1378 19.1123 17.4426 18.6712 17.0143Z" fill="black" stroke="black" stroke-width="0.5"/>
</svg>
