<?xml version="1.0" encoding="utf-8"?>
<svg viewBox="-2069.9 -2116.3 4290 4290" xmlns="http://www.w3.org/2000/svg">
  <g transform="matrix(1, 0, 0, -1, -6000, 1600)">
    <path style="fill: #e5a585; stroke: rgb(187, 76, 76);" d="M 5381.104 2375.983 C 5381.104 2375.983 5161.091 1840.055 5719.585 2014.937 C 5719.585 2014.937 6447.32 2612.92 6436.037 2624.203 C 6424.754 2635.486 7179.687 1068.419 7716.019 1422.595 C 8640.301 2032.96 7716.019 4121.491 6063.708 2996.532 C 4963.032 2247.148 5689.982 2400.467 5381.104 2375.983 Z"/>
    <path style="fill: rgb(229, 165, 133); stroke: rgb(0, 0, 0);" d="M 4590.652 1113.807 L 5966.209 -255.137 L 6519.07 166.09 L 6400.6 422.776 L 5130.336 1686.458"/>
    <path fill="#fdc9a6" d="M 4449.758 1376.783 C 3992.38 1834.163 3928.566 2639.523 4385.93 3096.883 C 4843.308 3554.273 5584.856 3554.263 6042.236 3096.883 L 5212.246 2161.27 C 5408.953 2078.624 5471.269 1736.206 5740.681 1930.176 C 6240.681 2290.164 6571.991 3148.253 6487.279 2526.532 L 7713.076 1355.343 C 7725.346 1274.143 7699.136 1187.813 7636.466 1125.173 C 7533.486 1022.163 7366.486 1022.193 7263.496 1125.183 L 7336.345 1073.697 C 7439.345 970.677 7138.813 751.409 7035.813 648.419 C 6932.813 545.409 7085.468 1356.428 6982.488 1459.428 L 7237.925 1230.986 C 7340.935 1127.986 6970.46 499.054 6867.47 396.085 C 6764.47 293.087 6613.446 269.144 6510.456 372.122 L 6437.996 444.036 C 6541.006 341.038 6540.986 174.066 6437.996 71.077 L 6504.431 443.734 C 6401.431 340.736 6343.671 410.861 6240.681 513.859 C 6137.681 616.857 5700.366 83.851 5803.336 186.849 L 6240.681 634.326 C 6137.671 531.328 6168.666 743.626 6065.686 846.624 C 5962.666 949.622 5637.691 876.443 5740.681 979.431 L 5740.681 1230.986 C 5637.671 1127.988 5657.749 1127.998 5554.749 1230.986 C 5451.759 1333.992 4947.316 836.893 5050.286 939.883 L 5472.145 1335.311 C 5369.145 1232.321 5334.464 1542.856 5231.476 1645.856 C 5153.639 1723.696 4576.921 1135.653 4616.73 1231.343 L 4449.758 1376.783 Z"/>
    <path stroke-width="180" stroke-linecap="round" stroke="#000000" fill="none" d="M 6176.316 -190.622 C 6073.316 -293.62 5906.316 -289.118 5803.326 -186.12 C 5700.326 -83.122 5700.366 83.851 5803.336 186.849 L 6065.026 448.538 C 6168.026 551.536 6335.026 547.034 6437.996 444.036 C 6541.006 341.038 6540.986 174.066 6437.996 71.077 L 6176.316 -190.622 Z M 5799.786 185.902 C 5696.776 82.904 5529.796 87.396 5426.816 190.394 C 5323.796 293.392 5323.826 460.384 5426.816 563.372 L 5688.496 825.053 C 5791.516 928.053 5958.516 923.553 6061.486 820.573 C 6164.486 717.573 6164.466 550.579 6061.486 447.581 L 5799.786 185.902 Z M 5423.276 562.415 C 5320.266 459.417 5153.276 463.929 5050.276 566.917 C 4947.286 669.923 4947.316 836.893 5050.286 939.883 L 5311.986 1201.573 C 5414.986 1304.593 5581.986 1300.083 5684.956 1197.083 C 5787.976 1094.083 5787.946 927.093 5684.956 824.103 L 5423.276 562.415 Z M 5046.736 938.943 C 4943.736 835.953 4776.75 840.433 4673.762 943.433 C 4570.764 1046.433 4570.783 1213.423 4673.771 1316.413 L 4935.456 1578.113 C 5038.476 1681.103 5205.446 1676.603 5308.446 1573.603 C 5411.446 1470.613 5411.416 1303.613 5308.436 1200.633 L 5046.736 938.943 Z M 6477.536 2658.733 C 6477.536 2658.733 5880.375 2114.36 5740.681 2012.205 C 5495.62 1832.998 5147.346 2135.061 5388.298 2360.547 L 6016.106 2961.773 M 6013.996 2959.663 C 6287.335 3233.002 6684.954 3365.782 7058.309 3330.761 C 7309.692 3307.181 7550.075 3207.53 7734.116 3023.493 C 8191.496 2566.113 8191.496 1824.563 7734.116 1367.193 M 6484.996 2654.113 L 7640.966 1498.133 C 7743.986 1395.143 7739.486 1228.153 7636.466 1125.173 C 7533.486 1022.163 7366.486 1022.193 7263.496 1125.183 M 6485.866 1900.223 L 7264.456 1121.623 C 7367.456 1018.603 7362.956 851.633 7259.956 748.643 C 7156.956 645.633 6989.966 645.653 6886.986 748.653 L 6108.396 1527.263 M 6887.936 745.093 C 6990.946 642.093 6986.436 475.091 6883.446 372.122 C 6780.446 269.124 6613.446 269.144 6510.456 372.122 M 4555.549 1270.993 L 4449.758 1376.783 C 3992.38 1834.163 3928.566 2639.523 4385.93 3096.883 C 4843.308 3554.273 5584.856 3554.263 6042.236 3096.883 L 6074.366 3064.573"/>
  </g>
</svg>